<svg width="14" height="14" viewBox="0 0 14 14" fill="none" xmlns="http://www.w3.org/2000/svg">
<path d="M11.0833 0H2.91667C1.30608 0 0 1.30608 0 2.91667V11.0833C0 12.6939 1.30608 14 2.91667 14H11.0833C12.6945 14 14 12.6939 14 11.0833V2.91667C14 1.30608 12.6945 0 11.0833 0ZM4.66667 11.0833H2.91667V4.66667H4.66667V11.0833ZM3.79167 3.927C3.22817 3.927 2.77083 3.46617 2.77083 2.898C2.77083 2.32983 3.22817 1.869 3.79167 1.869C4.35517 1.869 4.8125 2.32983 4.8125 2.898C4.8125 3.46617 4.35575 3.927 3.79167 3.927ZM11.6667 11.0833H9.91667V7.81433C9.91667 5.84967 7.58333 5.99842 7.58333 7.81433V11.0833H5.83333V4.66667H7.58333V5.69625C8.39767 4.18775 11.6667 4.07633 11.6667 7.14058V11.0833Z" fill="white"/>
</svg>
